<svg xmlns="http://www.w3.org/2000/svg" width="512" height="512" viewBox="0 0 135.467 135.467"><path d="M0 0h135.467v135.467H0z" style="fill:#35443a;fill-opacity:1;stroke-width:2.29798;stroke-linecap:round;stroke-linejoin:round;paint-order:stroke fill markers"/><path d="M10.614 10.614h114.24v114.24H10.614z" style="fill:none;fill-opacity:1;stroke:#c0c0a4;stroke-width:7.99799;stroke-linecap:round;stroke-linejoin:miter;stroke-dasharray:none;stroke-opacity:1;paint-order:stroke fill markers"/><path d="M21.696 21.696h67.733v6.35H21.696zM46.037 107.421h67.733v6.35H46.037z" style="fill:#c0c0a4;fill-opacity:1;stroke:none;stroke-width:5.27988;stroke-linecap:square;stroke-linejoin:miter;stroke-dasharray:none;stroke-opacity:1;paint-order:stroke fill markers"/><path d="M92.88 102.823q-1.157 0-3.261-2.42l-42.824-53.24v40.299q0 5.576.842 7.47.631 1.158 2.525 2.104 1.894.842 3.893 1.263 2 .421 3.051.421.21 0 .316.947.105.842.105 1.789t-.21 1.262q-5.05 0-8.628-.42-3.472-.421-5.577-.421-2.525 0-3.998.105-1.473.105-3.367.315-1.789.21-5.682.421-.315-.315-.315-1.894 0-1.999.315-1.999 2.42 0 5.05-.947 2.736-1.052 3.894-3.051 1.052-1.684 1.052-7.681v-41.35q0-5.472-1.578-7.471-.316-.526-2-.842-1.578-.42-3.472-.631-1.788-.316-2.84-.316-.21 0-.421-.841-.105-.842-.105-1.79.105-1.051.315-1.262l6.734.421q2.42.21 4.314.316 2 .105 3.367.105 1.789 0 4.314-.21 2.63-.21 5.997-.632 2.105 4.209 5.787 9.26 3.788 5.05 8.418 10.732 4.735 5.576 9.68 11.574 5.05 5.997 9.575 11.994.105-.42.105-1.473.105-1.052.105-2.84V47.162q0-6.102-1.368-7.575-.631-.842-2.315-1.473-1.578-.737-3.367-1.158-1.683-.42-2.525-.42-.21 0-.42-.842-.106-.842-.106-1.79 0-1.051.21-1.262 4.84.421 8.313.632 3.472.21 5.576.21 1.789 0 4.525-.21 2.735-.21 5.155-.421 2.526-.21 3.367-.21.421.736.421 1.893 0 2-.526 2-5.682 0-8.733 3.471-1.473 1.79-1.473 7.681v39.983q0 1.894.105 5.577.105 3.682.316 9.154-.421.42-2.63.42z" aria-label="N" style="font-weight:700;font-size:107.743px;line-height:1.25;font-family:&quot;Crimson Text&quot;;-inkscape-font-specification:&quot;Crimson Text, Bold&quot;;fill:#f3f7e8;stroke-width:.0538711" transform="matrix(.94539 0 0 .94539 3.7 3.7)"/></svg>